<svg xmlns="http://www.w3.org/2000/svg" xmlns:xlink="http://www.w3.org/1999/xlink" width="40" zoomAndPan="magnify" viewBox="0 0 30 30.000001" height="40" preserveAspectRatio="xMidYMid meet" version="1.0"><defs><clipPath id="id1"><path d="M 2.742188 3.484375 L 27.417969 3.484375 L 27.417969 25.257812 L 2.742188 25.257812 Z M 2.742188 3.484375 " clip-rule="nonzero"/></clipPath></defs><g clip-path="url(#id1)"><path fill="rgb(49.798584%, 72.938538%, 0%)" d="M 15.082031 3.484375 L 2.742188 5.902344 L 2.742188 22.839844 L 15.082031 25.257812 Z M 17.546875 5.902344 L 17.546875 8.324219 L 20.015625 8.324219 L 20.015625 10.742188 L 17.546875 10.742188 L 17.546875 13.160156 L 20.015625 13.160156 L 20.015625 15.582031 L 17.546875 15.582031 L 17.546875 18 L 20.015625 18 L 20.015625 20.417969 L 17.546875 20.417969 L 17.546875 22.839844 L 27.417969 22.839844 L 27.417969 5.902344 Z M 22.484375 8.324219 L 24.953125 8.324219 L 24.953125 10.742188 L 22.484375 10.742188 Z M 5.425781 9.890625 L 7.621094 9.890625 L 8.757812 12.570312 C 8.851562 12.789062 8.921875 13.042969 8.992188 13.332031 L 9.023438 13.332031 C 9.066406 13.160156 9.148438 12.894531 9.273438 12.550781 L 10.542969 9.890625 L 12.542969 9.890625 L 10.15625 14.332031 L 12.613281 18.851562 L 10.480469 18.851562 L 9.105469 15.929688 C 9.054688 15.828125 8.992188 15.621094 8.941406 15.332031 L 8.921875 15.332031 C 8.890625 15.46875 8.832031 15.675781 8.738281 15.953125 L 7.351562 18.851562 L 5.210938 18.851562 L 7.753906 14.367188 Z M 22.484375 13.160156 L 24.953125 13.160156 L 24.953125 15.582031 L 22.484375 15.582031 Z M 22.484375 18 L 24.953125 18 L 24.953125 20.417969 L 22.484375 20.417969 Z M 22.484375 18 " fill-opacity="1" fill-rule="nonzero"/></g></svg>